<svg xmlns:xlink="http://www.w3.org/1999/xlink" xmlns="http://www.w3.org/2000/svg" class="icon" width="20" height="20"><defs><svg fill="none" viewBox="0 0 20 20" id="rus" xmlns="http://www.w3.org/2000/svg"><path d="M10 20c5.523 0 10-4.477 10-10S15.523 0 10 0 0 4.477 0 10s4.477 10 10 10z" fill="#fff"></path><path d="M19.378 13.478A9.977 9.977 0 0 0 20 10c0-1.223-.22-2.395-.622-3.478H.622A9.979 9.979 0 0 0 0 10c0 1.223.22 2.395.622 3.478l9.378.87 9.378-.87z" fill="#0052B4"></path><path d="M10 20c4.299 0 7.964-2.714 9.377-6.522H.621A10.004 10.004 0 0 0 10 20z" fill="#D80027"></path></svg></defs><use xlink:href="#rus"></use></svg>