<svg xmlns:xlink="http://www.w3.org/1999/xlink" xmlns="http://www.w3.org/2000/svg" class="icon" width="152"  height="34" ><defs><svg fill="none" viewBox="0 0 125 28" id="logo_footer" xmlns="http://www.w3.org/2000/svg"><path d="M20.358 22.849v4.853H0V1.57h19.87v4.853H6.047v5.675h12.208V16.8H6.047v6.048h14.311zm17.018 4.853l-4.433-6.16-4.582 6.16h-6.386l7.776-10.117-7.513-9.968h6.574l4.282 5.861 4.394-5.861h6.235l-7.512 9.819 7.813 10.266h-6.648z" fill="#F73"></path><path d="M71.395 1.568v26.133H65.31V16.987H53.366V27.7H47.28V1.568h6.085v10.304H65.31V1.568h6.085zM97.56 7.616v20.085h-5.558v-2.389a7.972 7.972 0 01-2.78 2.016c-1.076.448-2.24.672-3.493.672-2.654 0-4.758-.76-6.31-2.277-1.553-1.519-2.329-3.771-2.329-6.758V7.616h5.86v10.49c0 3.236 1.364 4.854 4.094 4.854 1.402 0 2.529-.448 3.38-1.344.852-.92 1.277-2.277 1.277-4.07v-9.93h5.86zm17.374-.299c1.878 0 3.58.436 5.108 1.307 1.552.846 2.767 2.053 3.643 3.621.877 1.543 1.315 3.348 1.315 5.414 0 2.065-.438 3.882-1.315 5.45a9.406 9.406 0 01-3.643 3.622c-1.528.846-3.23 1.269-5.108 1.269-2.78 0-4.896-.871-6.348-2.613V27.7h-5.597V0h5.86v9.744c1.477-1.618 3.505-2.427 6.085-2.427zm-1.015 15.904c1.503 0 2.73-.497 3.681-1.493.977-1.02 1.465-2.377 1.465-4.07 0-1.692-.488-3.036-1.465-4.031-.951-1.02-2.178-1.531-3.681-1.531-1.502 0-2.741.51-3.718 1.53-.952.996-1.427 2.34-1.427 4.033 0 1.692.475 3.049 1.427 4.069.977.996 2.216 1.493 3.718 1.493z" fill="#fff"></path></svg></defs><use xlink:href="#logo_footer"></use></svg>