<svg xmlns:xlink="http://www.w3.org/1999/xlink" xmlns="http://www.w3.org/2000/svg" class="icon" width="152"  height="34" ><defs><svg fill="none" viewBox="0 0 152 34" id="logo" xmlns="http://www.w3.org/2000/svg"><path d="M24.755 27.745v5.893H0V1.905h24.162v5.893H7.354v6.891h14.844v5.712H7.354v7.344h17.401zm20.694 5.893l-5.39-7.48-5.572 7.48h-7.765l9.455-12.285-9.135-12.104h7.993l5.207 7.117 5.344-7.117h7.582l-9.135 11.923 9.5 12.466h-8.084z" fill="#F73"></path><path d="M86.817 1.904v31.733h-7.4v-13.01H64.893v13.01h-7.4V1.904h7.4v12.512h14.524V1.904h7.4zm31.817 7.344v24.39h-6.76v-2.902a9.688 9.688 0 01-3.38 2.448c-1.309.544-2.725.816-4.248.816-3.227 0-5.785-.922-7.673-2.765-1.888-1.844-2.832-4.579-2.832-8.206V9.248h7.126v12.739c0 3.929 1.659 5.893 4.978 5.893 1.705 0 3.075-.544 4.111-1.632 1.035-1.118 1.553-2.765 1.553-4.941V9.248h7.125zm21.125-.363c2.284 0 4.354.53 6.212 1.587 1.888 1.028 3.365 2.493 4.43 4.397 1.066 1.874 1.599 4.065 1.599 6.574 0 2.508-.533 4.714-1.599 6.618a11.424 11.424 0 01-4.43 4.398c-1.858 1.027-3.928 1.541-6.212 1.541-3.38 0-5.953-1.058-7.719-3.173v2.81h-6.805V0h7.125v11.832c1.797-1.964 4.263-2.947 7.399-2.947zm-1.233 19.312c1.827 0 3.319-.604 4.476-1.813 1.188-1.24 1.781-2.886 1.781-4.941 0-2.055-.593-3.687-1.781-4.896-1.157-1.24-2.649-1.859-4.476-1.859s-3.334.62-4.522 1.859c-1.157 1.209-1.735 2.84-1.735 4.896 0 2.055.578 3.702 1.735 4.941 1.188 1.209 2.695 1.813 4.522 1.813z" fill="#2E4057"></path></svg></defs><use xlink:href="#logo"></use></svg>