<svg xmlns:xlink="http://www.w3.org/1999/xlink" xmlns="http://www.w3.org/2000/svg" class="icon" width="19"  height="20" ><defs><svg fill="none" viewBox="0 0 19 20" id="chat" xmlns="http://www.w3.org/2000/svg"><path opacity=".5" fill-rule="evenodd" clip-rule="evenodd" d="M17.302 9.383v4.218a2 2 0 01-2 2h-.834V18a1 1 0 01-1.6.8l-4.267-3.2H2a2 2 0 01-2-2V4.266a2 2 0 012-2h7.35a5.646 5.646 0 00-.414 2H2V13.6h6.934a1 1 0 01.6.2l2.934 2.2v-1.4a1 1 0 011-1h1.834v-3.577a5.63 5.63 0 002-.64z" fill="#2E4057"></path><circle cx="14.602" cy="4.399" r="3.4" fill="#00AF92"></circle></svg></defs><use xlink:href="#chat"></use></svg>