<svg xmlns:xlink="http://www.w3.org/1999/xlink" xmlns="http://www.w3.org/2000/svg" class="icon" width="28"  height="28" ><defs><svg fill="none" viewBox="0 0 28 28" id="twitter" xmlns="http://www.w3.org/2000/svg"><circle cx="14" cy="14" r="14" fill="#fff"></circle><path d="M22 9.42a7.29 7.29 0 01-1.89.479c.68-.375 1.199-.964 1.443-1.674a6.896 6.896 0 01-2.08.733A3.42 3.42 0 0017.077 8c-1.816 0-3.278 1.36-3.278 3.029 0 .24.022.47.076.69-2.727-.123-5.14-1.33-6.761-3.167a2.872 2.872 0 00-.449 1.53c0 1.05.585 1.979 1.457 2.517a3.45 3.45 0 01-1.482-.373v.033c0 1.471 1.137 2.694 2.628 2.975-.267.068-.558.1-.86.1-.21 0-.422-.011-.621-.052.425 1.2 1.631 2.08 3.065 2.11a6.948 6.948 0 01-4.067 1.29c-.269 0-.527-.01-.785-.04A9.82 9.82 0 0011.032 20c6.036 0 9.336-4.615 9.336-8.616 0-.134-.005-.263-.012-.391A6.29 6.29 0 0022 9.42z" fill="#00ACEE"></path></svg></defs><use xlink:href="#twitter"></use></svg>