<svg xmlns:xlink="http://www.w3.org/1999/xlink" xmlns="http://www.w3.org/2000/svg" class="icon" width="28"  height="28" ><defs><svg fill="none" viewBox="0 0 28 28" id="vk" xmlns="http://www.w3.org/2000/svg"><circle cx="14" cy="14" r="14" fill="#fff"></circle><path d="M20.866 18.027c-.04-.07-.29-.64-1.49-1.812-1.256-1.226-1.087-1.027.426-3.148.922-1.291 1.29-2.08 1.175-2.417-.11-.322-.788-.237-.788-.237l-2.253.014s-.167-.024-.292.054c-.121.077-.199.255-.199.255s-.357 1-.833 1.85c-1.004 1.793-1.407 1.887-1.57 1.776-.382-.26-.287-1.043-.287-1.6 0-1.738.25-2.462-.488-2.65-.246-.062-.426-.103-1.053-.11-.805-.009-1.486.003-1.872.201-.256.132-.454.427-.333.444.149.02.486.095.665.352.232.33.224 1.073.224 1.073s.133 2.046-.31 2.3c-.305.175-.723-.18-1.618-1.809a15.535 15.535 0 01-.806-1.755s-.066-.171-.185-.263c-.145-.111-.347-.147-.347-.147l-2.143.014s-.322.01-.44.157c-.105.131-.008.401-.008.401s1.678 4.128 3.577 6.21c1.743 1.907 3.721 1.782 3.721 1.782h.897s.27-.032.409-.188c.127-.144.122-.414.122-.414s-.017-1.265.541-1.452c.55-.183 1.258 1.223 2.007 1.764.566.41.996.32.996.32l2.004-.03s1.048-.068.551-.935z" fill="#4680C2"></path></svg></defs><use xlink:href="#vk"></use></svg>