<svg xmlns:xlink="http://www.w3.org/1999/xlink" xmlns="http://www.w3.org/2000/svg" class="icon" width="28"  height="28" ><defs><svg fill="none" viewBox="0 0 28 28" id="youtube" xmlns="http://www.w3.org/2000/svg"><circle cx="14" cy="14" r="14" fill="#fff"></circle><path d="M21.646 9.572l.02.127a1.998 1.998 0 00-1.379-1.367l-.014-.003C19.026 8 14.007 8 14.007 8S9 7.994 7.74 8.329a2 2 0 00-1.388 1.356l-.004.014c-.466 2.362-.47 5.2.02 7.73l-.02-.128c.194.666.716 1.18 1.379 1.366l.014.004C8.987 19 14.007 19 14.007 19s5.006 0 6.267-.33a2 2 0 001.39-1.356l.003-.013c.212-1.099.333-2.363.333-3.655v-.292a20.24 20.24 0 00-.354-3.782zm-9.24 6.29v-4.719l4.177 2.364-4.177 2.355z" fill="red"></path></svg></defs><use xlink:href="#youtube"></use></svg>